<?xml version="1.0" encoding="UTF-8"?>
<svg id="a" data-name="Layer 1" xmlns="http://www.w3.org/2000/svg" viewBox="0 0 41.4 29">
  <g id="b" data-name="Layer 2">
    <path d="m22.2,23.6H3.3c-1.6,0-2.8-1.3-2.8-2.8V3.3C.5,1.7,1.8.5,3.3.5h22c1.6,0,2.8,1.3,2.8,2.8v5" fill="none" stroke="#fff"/>
    <line x1=".5" y1="18.2" x2="22.2" y2="18.2" fill="none" stroke="#fff"/>
    <rect x="11.8" y="23.6" width="5.1" height="3.9" fill="none" stroke="#fff"/>
    <line x1="9.5" y1="27.5" x2="19.2" y2="27.5" fill="none" stroke="#fff"/>
    <circle cx="14.3" cy="20.6" r=".3" stroke="#fff"/>
    <path d="m36.3,9.9v16h-14.1V9.9c0-.9.7-1.6,1.6-1.6h10.9c.9,0,1.6.7,1.6,1.6Z" fill="none" stroke="#fff"/>
    <path d="m36.3,25.9v.3c0,.9-.7,1.6-1.6,1.6h-10.9c-.9,0-1.6-.7-1.6-1.6v-.3h14.1Z" fill="none" stroke="#fff"/>
    <circle cx="29.3" cy="26.9" r=".6" fill="#fff"/>
    <path d="m36.5,15.5h2.7c.9,0,1.7.8,1.7,1.8v9.6h-8" fill="none" stroke="#fff"/>
    <path d="m40.9,26.9v.4c0,.7-.8,1.2-1.7,1.2h-4.6c-.9,0-1.7-.5-1.7-1.2v-.4h8Z" fill="none" stroke="#fff"/>
    <circle cx="37.1" cy="27.6" r=".6" fill="#fff"/>
  </g>
</svg>