<?xml version="1.0" encoding="UTF-8"?>
<svg id="a" data-name="Layer 1" xmlns="http://www.w3.org/2000/svg" viewBox="0 0 383.2 351">
  <path d="m383.2,169.4c-.9,3.6-1.5,7.3-2.6,10.8-5.5,17.7-17,30.2-33.9,38.2,6.8,5.4,6.1,11.7,3,18.8-5,11.4-9.6,23-14.4,34.5-3.5,8.3-9.4,10.7-17.8,7.3-6.3-2.6-12.6-5.3-19-7.8-1-.4-2.9-.4-3.5.3-7.7,7.9-15.3,16-23.4,24.5,2.6,6.3,5.6,13.6,8.5,20.8,3.2,8,.8,13.9-7.1,17.2-12.5,5.3-25.1,10.5-37.6,15.6-7.7,3.2-13.8.7-17-7-2.7-6.4-5.5-12.8-8-19.3-.9-2.3-2.1-2.6-4.4-2.5-9.7.2-19.4.2-29.1,0-2.1,0-3.1.3-3.9,2.3-2.6,6.6-5.3,13.2-8.1,19.7-3.2,7.5-9.2,10-16.7,7-12.9-5.3-25.8-10.6-38.6-16-7-2.9-9.5-9.2-6.7-16.3,2.7-6.6,5.3-13.2,8.2-19.7.9-2,.6-3.1-1.1-4.7-7.1-6.8-14-13.8-20.8-20.9-1.5-1.5-2.4-1.9-4.4-1.1-6.4,2.8-12.9,5.4-19.3,8-7.8,3.2-14,.6-17.3-7.2-5.2-12.4-10.3-24.9-15.3-37.3-3.3-8.2-.9-14.1,7.2-17.5,1.8-.8,3.6-1.5,5.8-2.5-1.5-.9-2.6-1.6-3.8-2.3C10.8,194.7-5.3,159.4,1.6,123.8c6.6-33.9,35-60.8,69.6-65.8,2.6-.4,5.3-.9,7.8-.7,4.4.4,6.2-1.7,8.3-5.4C105.6,18.1,134.3-.1,172.7,0c38.9.1,67.6,18.9,85.7,53.5,1.3,2.5,2.6,3.8,5.7,4.1,28,2.8,48.4,16.9,61.1,42,.6,1.2,2.2,2.4,3.4,2.6,29.6,4.6,48,22.3,53.9,52.1.1.6.4,1.2.6,1.7v13.5Zm-180.7,41.1c39.2,0,78.3,0,117.5,0,2.2,0,4.5,0,6.7-.2,25.4-2.2,44.5-23.8,43.8-49.5-.8-25-21.5-45.5-46.6-46-4.5,0-7-1.9-8.7-6-9.6-23.9-31-38.7-56.5-38.7-5.2,0-7.8-2-9.7-6.7-14.3-34.4-50.1-55.3-86.7-50.2-31.5,4.4-53.7,21.7-66.5,50.9-2.3,5.2-3.7,6.3-8.5,6C38.8,67.3,2.1,113.2,15.5,159.7c8.7,30.1,35.8,50.7,67.3,50.8,39.9.2,79.8,0,119.7,0Zm136.6,18.6c-7.5-2.9-14.1-6.5-22.4-6-11.1.7-22.2.3-33.3,0-3.1,0-4.4,1-5.8,3.7-18.7,35.4-48.3,54.4-88.3,53.5-38-.8-66.1-19.8-83.7-53.7-1.4-2.8-3-3.6-5.9-3.6-9.3,0-18.7-.4-28-.7-2.7-.1-5.7-1.8-8-1.1-6.6,2.1-12.8,5.1-19.4,7.8,5.4,13,10.5,25.5,15.8,38.2,1.6-.6,3-1.1,4.4-1.6,7-2.9,14-5.8,21.1-8.7,4.8-2,7.1-1.4,10,2.7,7.5,10.4,16.5,19.4,26.8,26.9,4.4,3.2,4.9,5.1,2.8,10.2-2.9,7.1-5.9,14.3-8.8,21.4-.5,1.2-.9,2.5-1.4,3.9,12.8,5.3,25.4,10.5,38.2,15.8,3.5-8.5,6.9-16.8,10.3-25,2.2-5.4,4.2-6.4,9.8-5.4,11.9,1.9,23.9,1.9,35.8.1,7.1-1.1,8.4-.5,11.1,6.1,3.3,8,6.7,16,10.1,24.3,12.9-5.4,25.5-10.6,38.2-15.9-3.6-8.6-6.9-16.8-10.3-25-2.3-5.5-1.8-7.3,3-10.8,10-7.2,18.6-15.8,25.9-25.7,3.8-5.1,5.5-5.6,11.4-3.2,8.1,3.3,16.3,6.7,24.6,10.2,5.3-12.8,10.5-25.3,15.9-38.3Zm-220.5-5.7c9,24.4,42.8,44.8,73.5,44.6,30.6-.2,64.3-20.9,72.6-44.6H118.5Z" fill="#fff"/>
  <path d="m185.2,146.7c0,8.3,0,16.1,0,24,0,2.7,0,5.5-.1,8.2-.3,3.5-2.7,5.9-6,6.1-3.3.2-6.1-2.3-6.6-5.9-.1-.9-.1-1.7-.1-2.6,0-24.2-.1-48.4-.2-72.6,0-6.4,2.5-8.6,9-8.5,7.7.1,15.5-.1,23.2.1,12.8.4,22.8,8.8,25.1,21,2.2,11.2-3.8,23.1-14.5,27.6-3.9,1.6-8.4,2.1-12.7,2.5-5.5.4-11.1,0-17.1,0Zm.5-13c1.1,0,2.1.2,3.1.2,5.8,0,11.7.2,17.5-.3,6.3-.6,10.7-6,10.8-12.3,0-6.3-4.1-12-10.4-12.6-6.9-.6-13.8-.1-21-.1v25Z" fill="#fff"/>
  <path d="m134,152.9c-3.3.2-7.5-.8-9.8.8-2.2,1.6-2.6,5.9-3.7,9.1-1.9,5.5-3.6,11.1-5.5,16.7-1.6,4.6-4.7,6.4-8.4,5.1-3.8-1.3-5.2-4.6-3.7-9.2,8.3-24.9,16.6-49.8,24.8-74.8,1.1-3.2,3.1-5.2,6.5-5.2,3.4,0,5.3,2.2,6.4,5.4,8.1,24.5,16.2,48.9,24.3,73.4.5,1.4,1,2.9,1.1,4.3.2,3.1-2.2,5.7-5.2,6.4-3.1.6-6-1.1-7.2-4.6-2.6-7.5-5.3-15-7.5-22.7-1-3.6-2.6-5.3-6.4-4.7-1.8.3-3.7,0-5.6,0,0,0,0-.1,0-.2Zm-5.9-12.7h11.9c-1.9-5.8-3.8-11.3-5.6-16.8-.3,0-.5,0-.8,0-1.8,5.5-3.6,11-5.5,16.7Z" fill="#fff"/>
  <path d="m262.2,172.3c4,0,7.8,0,11.7,0,4.3,0,6.9,2.3,7.1,6,.1,3.9-2.5,6.6-6.9,6.7-12.3,0-24.7,0-37,0-4.3,0-7.2-2.9-7-6.6.1-3.6,2.9-6,7.1-6.1,3.8,0,7.7,0,11.8,0v-64c-3.8,0-7.8.3-11.7-.1-2.1-.2-4.8-1.2-6-2.8-3.3-4.1,0-9.6,5.7-9.8,6.1-.2,12.2-.2,18.3-.2,6.4,0,12.7,0,19.1.2,3.1,0,5.6,1.5,6.4,4.7.8,2.9,0,5.6-2.8,7.1-1.3.7-3.1.9-4.7,1-3.6.1-7.2,0-11,0v64Z" fill="#fff"/>
  <path d="m25.4,138.6c1.1-21,11-38.3,31.2-49.3,4.8-2.6,8.5-1.8,10.3,1.9,1.8,3.6.3,6.8-4.2,9.3-25.2,13.7-31.9,43.4-15.1,66.8,2.7,3.8,2.5,7.6-.5,9.9-3,2.3-6.8,1.5-9.7-2.2-7.9-10.2-11.6-21.9-11.9-36.4Z" fill="#fff"/>
  <path d="m172.3,32.4c-.2,2.9-2,5.2-5.4,5.5-20.6,2.2-32.4,14.7-39.2,33.2-1.6,4.4-4.6,6.1-8.3,4.9-3.6-1.2-5.4-4.5-4-8.4,7.4-21.4,20.9-36.6,43.9-41.5,2.3-.5,4.7-.7,7-.7,3.6.1,6,2.9,5.9,6.9Z" fill="#fff"/>
  <path d="m133.7,123.4c.3,0,.5,0,.8,0,1.8,5.5,3.7,11,5.6,16.8h-11.9" fill="#fff"/>
</svg>