<?xml version="1.0" encoding="UTF-8"?>
<svg id="a" data-name="Layer 1" xmlns="http://www.w3.org/2000/svg" viewBox="0 0 610.6 615.6">
  <line x1="230.4" y1="349.3" x2="268.3" y2="500.2" fill="none" stroke="#fff" stroke-miterlimit="10" stroke-width="7"/>
  <line x1="380.1" y1="391.7" x2="230.4" y2="349.3" fill="none" stroke="#fff" stroke-miterlimit="10" stroke-width="7"/>
  <line x1="268.3" y1="500.2" x2="380.1" y2="391.7" fill="none" stroke="#fff" stroke-miterlimit="10" stroke-width="7"/>
  <line x1="268.3" y1="500.2" x2="118.6" y2="457.8" fill="none" stroke="#fff" stroke-miterlimit="10" stroke-width="7"/>
  <polyline points="118.6 457.8 156.5 608.8 268.3 500.2" fill="none" stroke="#fff" stroke-miterlimit="10" stroke-width="7"/>
  <line x1="118.6" y1="457.8" x2="230.4" y2="349.3" fill="none" stroke="#fff" stroke-miterlimit="10" stroke-width="7"/>
  <line x1="230.4" y1="349.3" x2="342.3" y2="240.7" fill="none" stroke="#fff" stroke-miterlimit="10" stroke-width="7"/>
  <line x1="342.3" y1="240.7" x2="454.1" y2="132.2" fill="none" stroke="#fff" stroke-miterlimit="10" stroke-width="7"/>
  <line x1="304.4" y1="89.8" x2="342.3" y2="240.7" fill="none" stroke="#fff" stroke-miterlimit="10" stroke-width="7"/>
  <line x1="342.3" y1="240.7" x2="192.5" y2="198.4" fill="none" stroke="#fff" stroke-miterlimit="10" stroke-width="7"/>
  <line x1="192.5" y1="198.4" x2="230.4" y2="349.3" fill="none" stroke="#fff" stroke-miterlimit="10" stroke-width="7"/>
  <line x1="230.4" y1="349.3" x2="80.7" y2="306.9" fill="none" stroke="#fff" stroke-miterlimit="10" stroke-width="7"/>
  <line x1="80.7" y1="306.9" x2="118.6" y2="457.8" fill="none" stroke="#fff" stroke-miterlimit="10" stroke-width="7"/>
  <line x1="42.8" y1="156" x2="80.7" y2="306.9" fill="none" stroke="#fff" stroke-miterlimit="10" stroke-width="7"/>
  <line x1="192.5" y1="198.4" x2="42.8" y2="156" fill="none" stroke="#fff" stroke-miterlimit="10" stroke-width="7"/>
  <line x1="80.7" y1="306.9" x2="192.5" y2="198.4" fill="none" stroke="#fff" stroke-miterlimit="10" stroke-width="7"/>
  <line x1="192.5" y1="198.3" x2="304.4" y2="89.8" fill="none" stroke="#fff" stroke-miterlimit="10" stroke-width="7"/>
  <line x1="304.4" y1="89.8" x2="154.6" y2="47.4" fill="none" stroke="#fff" stroke-miterlimit="10" stroke-width="7"/>
  <line x1="154.6" y1="47.4" x2="192.5" y2="198.3" fill="none" stroke="#fff" stroke-miterlimit="10" stroke-width="7"/>
  <polyline points="42.8 156 4.9 5 154.6 47.4" fill="none" stroke="#fff" stroke-miterlimit="10" stroke-width="7"/>
  <line x1="42.8" y1="156" x2="154.6" y2="47.4" fill="none" stroke="#fff" stroke-miterlimit="10" stroke-width="7"/>
  <polyline points="492 283.1 603.8 174.6 454.1 132.2" fill="none" stroke="#fff" stroke-miterlimit="10" stroke-width="7"/>
  <line x1="454.1" y1="132.2" x2="492" y2="283.1" fill="none" stroke="#fff" stroke-miterlimit="10" stroke-width="7"/>
  <line x1="492" y1="283.1" x2="342.3" y2="240.7" fill="none" stroke="#fff" stroke-miterlimit="10" stroke-width="7"/>
  <line x1="342.3" y1="240.7" x2="380.1" y2="391.7" fill="none" stroke="#fff" stroke-miterlimit="10" stroke-width="7"/>
  <line x1="380.1" y1="391.7" x2="492" y2="283.1" fill="none" stroke="#fff" stroke-miterlimit="10" stroke-width="7"/>
  <line x1="454.1" y1="132.2" x2="304.4" y2="89.8" fill="none" stroke="#fff" stroke-miterlimit="10" stroke-width="7"/>
</svg>